HIERARCHY
ROOT hips
{
  OFFSET 0 10.074487846421558 1.314567655973056
  CHANNELS 6 Xposition Yposition Zposition Yrotation Xrotation Zrotation
  JOINT spine
  {
    OFFSET -7.042773748992335e-31 0.5690686926897363 0
    CHANNELS 3 Yrotation Xrotation Zrotation
    JOINT chest
    {
      OFFSET 0 1.2435964857087873 0
      CHANNELS 3 Yrotation Xrotation Zrotation
      JOINT upperChest
      {
        OFFSET 0 1.194994586872362 0
        CHANNELS 3 Yrotation Xrotation Zrotation
        JOINT neck
        {
          OFFSET 0 1.515103653293861 0
          CHANNELS 3 Yrotation Xrotation Zrotation
          JOINT head
          {
            OFFSET 0 0.8111851616465653 0
            CHANNELS 3 Yrotation Xrotation Zrotation
            JOINT leftEye
            {
              OFFSET 0.27141371691966987 0.7490044407698551 0.18219031050045686
              CHANNELS 3 Yrotation Xrotation Zrotation
              End Site
              {
                OFFSET 0.27141371691966987 0.7490044407698551 0.18219031050045686
              }
            }
            JOINT rightEye
            {
              OFFSET -0.2714136877644943 0.7490044019380786 0.18219040411850668
              CHANNELS 3 Yrotation Xrotation Zrotation
              End Site
              {
                OFFSET -0.2714136877644943 0.7490044019380786 0.18219040411850668
              }
            }
          }
        }
        JOINT leftShoulder
        {
          OFFSET 0.4137993136083964 1.1593397335613034 0
          CHANNELS 3 Yrotation Xrotation Zrotation
          JOINT leftUpperArm
          {
            OFFSET 1.0096991868951026 0 0
            CHANNELS 3 Yrotation Xrotation Zrotation
            JOINT leftLowerArm
            {
              OFFSET 2.418380967671622 0 0
              CHANNELS 3 Yrotation Xrotation Zrotation
              JOINT leftHand
              {
                OFFSET 2.361538296260114 0 0
                CHANNELS 3 Yrotation Xrotation Zrotation
                JOINT leftIndexProximal
                {
                  OFFSET 0.7243699271447109 0.08118285989887508 0.2022042461579805
                  CHANNELS 3 Yrotation Xrotation Zrotation
                  JOINT leftIndexIntermediate
                  {
                    OFFSET 0.36553107045252053 -0.010567764853200323 -0.014102670024158437
                    CHANNELS 3 Yrotation Xrotation Zrotation
                    JOINT leftIndexDistal
                    {
                      OFFSET 0.22505120770060527 -0.007821041598631284 -0.007511611613336286
                      CHANNELS 3 Yrotation Xrotation Zrotation
                      End Site
                      {
                        OFFSET 0.22505120770060527 -0.007821041598631284 -0.007511611613336286
                      }
                    }
                  }
                }
                JOINT leftLittleProximal
                {
                  OFFSET 0.6721063881632002 0.08118279568569564 -0.3209324945517917
                  CHANNELS 3 Yrotation Xrotation Zrotation
                  JOINT leftLittleIntermediate
                  {
                    OFFSET 0.34587329423120616 5.3042709780015684e-8 -5.929537746918179e-8
                    CHANNELS 3 Yrotation Xrotation Zrotation
                    JOINT leftLittleDistal
                    {
                      OFFSET 0.1992782500022232 0.0030983716482184676 0.0038310952896712935
                      CHANNELS 3 Yrotation Xrotation Zrotation
                      End Site
                      {
                        OFFSET 0.1992782500022232 0.0030983716482184676 0.0038310952896712935
                      }
                    }
                  }
                }
                JOINT leftMiddleProximal
                {
                  OFFSET 0.7301229696860206 0.08118412848995638 0.022516891543707507
                  CHANNELS 3 Yrotation Xrotation Zrotation
                  JOINT leftMiddleIntermediate
                  {
                    OFFSET 0.4076277831942017 -0.000001240188283180288 -1.6203245635504349e-7
                    CHANNELS 3 Yrotation Xrotation Zrotation
                    JOINT leftMiddleDistal
                    {
                      OFFSET 0.2514739255593972 0.0000013850839168938478 -1.8644847207816007e-8
                      CHANNELS 3 Yrotation Xrotation Zrotation
                      End Site
                      {
                        OFFSET 0.2514739255593972 0.0000013850839168938478 -1.8644847207816007e-8
                      }
                    }
                  }
                }
                JOINT leftRingProximal
                {
                  OFFSET 0.7218060861525873 0.08118280646416753 -0.1494689818508163
                  CHANNELS 3 Yrotation Xrotation Zrotation
                  JOINT leftRingIntermediate
                  {
                    OFFSET 0.3781267508900358 0.000001373626195677602 -1.4143108284514483e-7
                    CHANNELS 3 Yrotation Xrotation Zrotation
                    JOINT leftRingDistal
                    {
                      OFFSET 0.21814333268795483 -0.0027137626495670197 -0.004991775417842292
                      CHANNELS 3 Yrotation Xrotation Zrotation
                      End Site
                      {
                        OFFSET 0.21814333268795483 -0.0027137626495670197 -0.004991775417842292
                      }
                    }
                  }
                }
                JOINT leftThumbProximal
                {
                  OFFSET 0.10743676110519984 -0.16423092885053192 -0.07708859146227388
                  CHANNELS 3 Yrotation Xrotation Zrotation
                  JOINT leftThumbIntermediate
                  {
                    OFFSET 0.40350402100066307 -0.01735099334274981 0.315629965828783
                    CHANNELS 3 Yrotation Xrotation Zrotation
                    JOINT leftThumbDistal
                    {
                      OFFSET 0.2320014489535681 -0.01842351809041043 0.21271298411519196
                      CHANNELS 3 Yrotation Xrotation Zrotation
                      End Site
                      {
                        OFFSET 0.2320014489535681 -0.01842351809041043 0.21271298411519196
                      }
                    }
                  }
                }
              }
            }
          }
        }
        JOINT rightShoulder
        {
          OFFSET -0.41379931360839656 1.1593397335613034 0
          CHANNELS 3 Yrotation Xrotation Zrotation
          JOINT rightUpperArm
          {
            OFFSET -1.0096991868951024 0 0
            CHANNELS 3 Yrotation Xrotation Zrotation
            JOINT rightLowerArm
            {
              OFFSET -2.4183809676716232 0 0
              CHANNELS 3 Yrotation Xrotation Zrotation
              JOINT rightHand
              {
                OFFSET -2.3615382962601132 0 0
                CHANNELS 3 Yrotation Xrotation Zrotation
                JOINT rightIndexProximal
                {
                  OFFSET -0.7243699271447109 0.08118285989887508 0.2022042461579805
                  CHANNELS 3 Yrotation Xrotation Zrotation
                  JOINT rightIndexIntermediate
                  {
                    OFFSET -0.36553107045252053 -0.010567764853200323 -0.014102670024158437
                    CHANNELS 3 Yrotation Xrotation Zrotation
                    JOINT rightIndexDistal
                    {
                      OFFSET -0.22505120770060527 -0.007821041598631284 -0.007511611613336286
                      CHANNELS 3 Yrotation Xrotation Zrotation
                      End Site
                      {
                        OFFSET -0.22505120770060527 -0.007821041598631284 -0.007511611613336286
                      }
                    }
                  }
                }
                JOINT rightLittleProximal
                {
                  OFFSET -0.6721063881632002 0.08118279568569564 -0.3209324945517917
                  CHANNELS 3 Yrotation Xrotation Zrotation
                  JOINT rightLittleIntermediate
                  {
                    OFFSET -0.34587329423120616 5.3042709780015684e-8 -5.929537746918179e-8
                    CHANNELS 3 Yrotation Xrotation Zrotation
                    JOINT rightLittleDistal
                    {
                      OFFSET -0.1992782500022232 0.0030983716482184676 0.0038310952896712935
                      CHANNELS 3 Yrotation Xrotation Zrotation
                      End Site
                      {
                        OFFSET -0.1992782500022232 0.0030983716482184676 0.0038310952896712935
                      }
                    }
                  }
                }
                JOINT rightMiddleProximal
                {
                  OFFSET -0.7301229696860206 0.08118412848995638 0.022516891543707507
                  CHANNELS 3 Yrotation Xrotation Zrotation
                  JOINT rightMiddleIntermediate
                  {
                    OFFSET -0.4076277831942017 -0.000001240188283180288 -1.6203245635504349e-7
                    CHANNELS 3 Yrotation Xrotation Zrotation
                    JOINT rightMiddleDistal
                    {
                      OFFSET -0.2514739255593972 0.0000013850839168938478 -1.8644847207816007e-8
                      CHANNELS 3 Yrotation Xrotation Zrotation
                      End Site
                      {
                        OFFSET -0.2514739255593972 0.0000013850839168938478 -1.8644847207816007e-8
                      }
                    }
                  }
                }
                JOINT rightRingProximal
                {
                  OFFSET -0.7218060861525873 0.08118280646416753 -0.1494689818508163
                  CHANNELS 3 Yrotation Xrotation Zrotation
                  JOINT rightRingIntermediate
                  {
                    OFFSET -0.3781267508900358 0.000001373626195677602 -1.4143108284514483e-7
                    CHANNELS 3 Yrotation Xrotation Zrotation
                    JOINT rightRingDistal
                    {
                      OFFSET -0.21814333268795483 -0.0027137626495670197 -0.004991775417842292
                      CHANNELS 3 Yrotation Xrotation Zrotation
                      End Site
                      {
                        OFFSET -0.21814333268795483 -0.0027137626495670197 -0.004991775417842292
                      }
                    }
                  }
                }
                JOINT rightThumbProximal
                {
                  OFFSET -0.10743676110519984 -0.16423092885053192 -0.07708859146227388
                  CHANNELS 3 Yrotation Xrotation Zrotation
                  JOINT rightThumbIntermediate
                  {
                    OFFSET -0.40350402100066307 -0.01735099334274981 0.315629965828783
                    CHANNELS 3 Yrotation Xrotation Zrotation
                    JOINT rightThumbDistal
                    {
                      OFFSET -0.2320014489535681 -0.01842351809041043 0.21271298411519196
                      CHANNELS 3 Yrotation Xrotation Zrotation
                      End Site
                      {
                        OFFSET -0.2320014489535681 -0.01842351809041043 0.21271298411519196
                      }
                    }
                  }
                }
              }
            }
          }
        }
      }
    }
  }
  JOINT leftUpperLeg
  {
    OFFSET 0.8487163290887698 -0.43932186100277326 0
    CHANNELS 3 Yrotation Xrotation Zrotation
    JOINT leftLowerLeg
    {
      OFFSET 0 -3.882816707004296 0
      CHANNELS 3 Yrotation Xrotation Zrotation
      JOINT leftFoot
      {
        OFFSET 0 -4.570431027442807 0.004629272230691511
        CHANNELS 3 Yrotation Xrotation Zrotation
        JOINT leftToes
        {
          OFFSET 0 -0.698875637876343 1.214565366696912
          CHANNELS 3 Yrotation Xrotation Zrotation
          End Site
          {
            OFFSET 0 -0.698875637876343 1.214565366696912
          }
        }
      }
    }
  }
  JOINT rightUpperLeg
  {
    OFFSET -0.8487163290887698 -0.43932186100277326 0
    CHANNELS 3 Yrotation Xrotation Zrotation
    JOINT rightLowerLeg
    {
      OFFSET 0 -3.882816707004296 0
      CHANNELS 3 Yrotation Xrotation Zrotation
      JOINT rightFoot
      {
        OFFSET 0 -4.570431027442807 0.004629272230691511
        CHANNELS 3 Yrotation Xrotation Zrotation
        JOINT rightToes
        {
          OFFSET 0 -0.698875637876343 1.214565366696912
          CHANNELS 3 Yrotation Xrotation Zrotation
          End Site
          {
            OFFSET 0 -0.698875637876343 1.214565366696912
          }
        }
      }
    }
  }
}
MOTION
Frames: 4
Frame Time: 0.03333333333333333
-0.009785303846001625 -0.07973210148747611 0.009729144163429737 0.34079250397544514 -2.0331095035108615 1.524465204690638 -3.727814279076214 5.7564455869535 -5.13451708253061 -2.362497649703969 1.1428507398237273 -7.227251631785893 0 0 0 2.1907097555792014 0.5590396832797617 0.6591796687968593 2.6199984541634174 -6.354672351753327 8.372469033145135 0 0 0 0 0 0 -0.28833509520312783 2.1337290080751248 -6.923642095968397 -9.290705869532568 1.4384337640839855 -50.80568069761748 -9.140002203070502 -0.9952799054615845 0.19781767988770874 9.489689506417708 -23.278188770330985 -5.559800367105366 -6.48953165094407 -2.1081392490535036 -82.46203759870475 4.8936272510158565 3.589415916612152 -72.50567831630505 2.20706761894531 0.49950686595732025 -25.50362569747308 6.672671422374344 1.0429534172248405 -71.54256131837543 4.580665939281311 2.821003072908001 -63.238728972844406 3.0890455563731605 1.035185787952547 -37.04813212704932 7.472378094422191 6.613423720489531 -83.06806372241886 5.049755619737856 6.041201627242135 -100.23408926195351 3.219374062968584 1.1368842426573185 -38.89380868089662 7.598071135869037 -2.042573379870942 -85.09506073410324 5.069673929562469 5.923684249614438 -98.89956935108057 5.062486835271146 4.293902128772776 -80.59936885730356 -50.582406708668195 32.61591712217546 2.6795661054093944 35.265210222226045 31.302848332670756 -15.717196406194757 28.043035415496483 5.006012653068923 11.4314862832743 5.251546284328422 0.4853432518961202 9.876714278905533 -4.754673723028516 5.085562228930354 67.64869390726436 27.718661312369797 -2.8542178147879635 -1.0691307180991676 3.638471270529986 5.176110448826273 3.933788854622803 3.6902065651244986 11.716357972465007 20.4498521407758 -2.1855286751545173 0.6650208254892107 33.844723689272826 -0.45209031659483284 0.026130041836583115 6.6171718334339555 -18.71382086118161 -8.160669691322207 25.86507543539619 -3.115846918662957 1.5383466233648853 52.54413966125686 -3.1745290046872308 1.6169271137490007 53.974705905857 -7.017002214576144 2.0077189256219676 20.522361251309782 -3.0164742317337794 1.4139872401130897 50.22203616887521 -1.9210005858248878 0.5024325399114429 29.311887430367896 -7.0830467597398 2.543281461875072 28.080817224836874 -3.166264015647815 1.6056007430346606 53.770274479141925 -2.693452552830869 1.070323971689572 43.337540297799166 25.061342735718203 5.20178533518071 -0.6637302145007132 -41.64048466999708 23.42393302726438 -8.161131521218742 -38.57346048325006 5.165522830367891 -2.881352228062222 10.250413080460142 -0.9889820604959298 4.1726413138642275 -2.874988382579214 7.787445493223132 0.25121741766277117 0.3128756786687523 -4.177426793991074 -4.238212756627785 -0.00000288441647445325 -0.6674624630212035 1.7433027909759207e-7 -10.192083022981649 -1.057167933935915 -6.5476279312943975 -5.833977111921387 10.930504505296266 -2.7694765635992096 -0.6346993826934739 -6.334417596268402 6.959555905640579 0.000014989336990390345 -1.3154521553163048 -0.000004342749751150719
-0.009632086381316185 -0.07886616520817924 0.00797133706510067 0.3481346707774314 -2.0649455214197765 1.511360786478057 -3.7127610116163745 5.798338330543849 -5.165230363916738 -2.350600011020536 1.14316114830892 -7.227224952419623 0 0 0 2.1906979526623522 0.5371829848374114 0.6583494390140276 2.6881179578166656 -6.375231162038096 8.408022042356396 0 0 0 0 0 0 -0.24635183636261077 2.149652123854464 -6.9226641990484685 -9.336797861427069 1.4418075558104215 -50.75260733841119 -9.231746159225047 -1.005084321562082 0.20064707522909994 9.558770671272796 -23.203866054948538 -5.5815140645104355 -6.4895308020664215 -2.1081386082895857 -82.46201981236244 4.893403933875377 3.58867509567367 -72.49703441485201 2.207062713202137 0.4995083601179822 -25.50363634454299 6.672681572768816 1.042941462413268 -71.5425629383534 4.58068638918133 2.8210201690988446 -63.23871215513376 3.0890493933984393 1.0351866418655613 -37.04811299099051 7.472373833453337 6.613413406575136 -83.06800829878581 5.049764171830652 6.041205490679266 -100.23411038400876 3.2193700131466008 1.1368901135068392 -38.8937868094981 7.598060127266785 -2.0425661181810266 -85.09503136812259 5.069660373673802 5.923678241115008 -98.89956828875768 5.062954505136017 4.296674434425503 -80.63098609013869 -50.582406708668195 32.61591712217546 2.6795661054093944 35.26520763474205 31.302856326497583 -15.717198450783863 28.043020089349536 5.00601136750473 11.431477203413419 5.195923965755751 0.4963048804373851 9.8769358925468 -4.7146919840344 5.069803758082374 67.61910669498849 27.489325391026856 -2.8332125954064082 -1.0548279570183514 3.638385898555794 5.173659520061292 3.9335895998870374 3.7095470934391432 11.704607078299965 20.513472992219114 -2.173511805166173 0.6570089606512642 33.63410368626478 -0.45209575923295353 0.026126119813487846 6.61716462470174 -18.71988935662026 -8.14502066188214 25.777335637370243 -3.109660332456238 1.5302960665630976 52.39602113844059 -3.170401390163954 1.6112705398820844 53.87256115383994 -7.007682888654656 2.003232585376309 20.526978778228674 -3.015510427667818 1.4128430487409742 50.199963216465946 -1.9209966313716582 0.5024276838871257 29.311901197190796 -7.111203723847843 2.5563494530930964 27.985630548668134 -3.164553777755143 1.6032852548850982 53.72805989205476 -2.689794142213069 1.0668805305844473 43.26431326112883 25.061342735718203 5.20178533518071 -0.6637302145007132 -41.6724606633384 23.427537653555863 -8.177082739532612 -38.57634012455576 5.168607241972755 -2.880543007573259 10.26688709954797 -0.9239120240219804 4.186735502460768 -2.8750024382209696 7.6933190571229755 0.2595841600057205 0.31329708437041326 -4.155458770580969 -4.1889319695925185 0.0000020265636313141545 -0.6340896597889717 -0.0000012201990801331443 -10.186087152259844 -0.977470963240433 -6.504434108661017 -5.851799282217317 10.818402474364724 -2.8332262868877827 -0.6337683653779486 -6.271878414376687 6.99696941147387 -0.000013411116418176513 -1.3106482036701361 -8.388018356678243e-7
-0.00939919613301754 -0.07692829899724174 0.004214564338326454 0.3603204413749683 -2.129775007206853 1.4842737442941705 -3.6653177241965387 5.836868223603463 -5.201515407820794 -2.31792705661792 1.143953074372802 -7.227163969233688 0 0 0 2.178737285085486 0.4740147726914559 0.6559835069890253 2.744766355758477 -6.38512191716119 8.433505453748305 0 0 0 0 0 0 -0.1609431866237637 2.182906254264151 -6.931824057068905 -9.394969696230545 1.456218313685591 -50.67626932001191 -9.434464510186032 -1.0267201055990915 0.20683547103082559 9.518042364780612 -23.259211113978 -5.5819212110739045 -6.488628283165455 -2.1092381595602965 -82.46904036788756 4.892308416286728 3.5852259234150687 -72.45661173678879 2.207069965170294 0.49950531843377777 -25.503651615270474 6.674459050031557 1.044807694441339 -71.56721845253371 4.580131708901619 2.8199437506731555 -63.22548987764814 3.089047048549661 1.0351865351264344 -37.048122559019696 7.47237639003466 6.613416414800146 -83.06802663112926 5.049765882249183 6.041205490679266 -100.23409940054037 3.2193753418597297 1.1368901135068392 -38.89377720306395 7.5980609740823635 -2.0425701761842103 -85.09505945732143 5.069668923665228 5.9236803870076535 -98.89955726445547 5.062931851036283 4.296592669244288 -80.62997067428385 -50.582406708668195 32.61591712217546 2.6795661054093944 35.279526185833255 31.313936422493736 -15.712775603047408 28.04302170105076 5.006028936882253 11.431467962960658 5.096184572337666 0.5200507004387331 9.880393596263122 -4.645690486648819 5.103354293302624 67.55587528330754 27.11728996300085 -2.7990383076977703 -1.0317342008955481 3.5534043535741495 5.150790214099734 3.9328186827089158 3.7567024490112577 11.670936210123253 20.796590936954733 -2.166559840015361 0.6524039919362264 33.51225262586281 -0.4520947987674034 0.026140447203979327 6.61717352960621 -18.728491057144762 -8.121895821002324 25.672612370138264 -3.098212538337567 1.5155045495644703 52.12326591972538 -3.1615447824021246 1.5991845796264952 53.65384491107751 -6.993982272684795 2.004167825908645 20.650182988396015 -3.0119835459669595 1.4085974396609329 50.119636472721204 -1.9209906580853853 0.5024346210647228 29.311873663545043 -7.1569159940633265 2.587302818448506 27.977201929551377 -3.1610909605235586 1.5985873458760183 53.64290969246187 -2.6808344481166726 1.0584749639758002 43.08510005204533 25.061342735718203 5.20178533518071 -0.6637302145007132 -41.65228616719255 23.418873317482756 -8.176849921947161 -38.452787318794435 5.034720789761936 -2.941663199928559 10.273439737292373 -0.7943973160209638 4.211739445137745 -2.88543417210795 7.509357702810377 0.28534693087855717 0.3132797910459811 -4.063919549657705 -4.171819524212175 -0.000005580837998212498 -0.6099514692192168 -0.000001449354056915891 -10.174284011910146 -0.8067596177488116 -6.41013642640182 -5.889898767185039 10.569154088021556 -2.9730247446632654 -0.631792076344564 -6.1325225626789885 7.074583536023998 0.000009134990452316162 -1.3001006147283471 -0.0000020184507757302683
-0.009257147088646889 -0.07479969792302299 0.0003323486016597599 0.38818513338419125 -2.1873933228629276 1.460431712954546 -3.6430947234614237 5.8748506068683435 -5.235378011022088 -2.2932022430005627 1.144378551925061 -7.227979562809294 0 0 0 2.1780896572721886 0.41095407461374595 0.6604295805866559 2.9067289980515443 -6.384037730567633 8.424292794557935 0 0 0 0 0 0 -0.07111856687102083 2.2187769071828023 -6.949855947025811 -9.401219726188772 1.475148186595622 -50.59279166952948 -9.60337764074835 -1.0447266791981737 0.21210548810596722 9.589377600020345 -23.375054161982792 -5.6407345020698685 -6.486772346830974 -2.111478059823392 -82.48350922758759 4.892494340278313 3.5858033508995595 -72.46345012426669 2.2070695385839336 0.4995046780792086 -25.503663874290275 6.677002500405097 1.049736605997492 -71.59325604821966 4.580618255723759 2.8208876736263853 -63.237228908069525 3.0887779919378433 1.0349936575301542 -37.04439879496055 7.472378094422191 6.6134121173358515 -83.0680176724237 5.049768020272335 6.041203773596093 -100.23408804165507 3.2193747024141572 1.1368901135068392 -38.89376759663015 7.597624465925225 -2.0428843510933974 -85.09153291646038 5.0696615320742735 5.923715150469683 -98.89986511528271 5.062430813156562 4.293552380612789 -80.59553748769171 -50.582406708668195 32.61591712217546 2.6795661054093944 35.30698300797553 31.336744258854434 -15.706364623230572 28.043043078569873 5.006003225598233 11.431479723536793 5.0079448453421085 0.5435313943899992 9.88592210758955 -4.567308817708389 5.136678563574144 67.49313759543747 26.74975088299074 -2.765098795787582 -1.0091918554385546 3.457519537042329 5.11848397911201 3.927912280013264 3.781690251906751 11.651994438677955 20.971851836585476 -2.171550735004888 0.6557085780635014 33.59954934728537 -0.45208994308045164 0.026129608279608293 6.617167593003265 -18.716173799164835 -8.136861743499267 25.562790106719284 -3.089368673726319 1.5041715722345397 51.91360096328039 -3.1536105245049897 1.5884582067358413 53.45929824688423 -6.994025280206335 2.0122736222183635 20.775508095071462 -3.0094085004969378 1.4055257030806871 50.06108967916464 -1.9210065591114478 0.5024383564680475 29.31188278043166 -7.202906949470205 2.6174838944251997 27.95476223259641 -3.1575889303278757 1.5938400163422486 53.556867946317304 -2.6730016390704567 1.0511663835350074 42.92896124847268 25.061342735718203 5.20178533518071 -0.6637302145007132 -41.570738187265285 23.387728448985886 -8.169952803313418 -38.43605420599032 5.010444007861672 -2.948921227871244 10.272839200827272 -0.6584002231093197 4.2379700214531635 -2.889777647073086 7.291127008784436 0.3054813898343861 0.31346037329326093 -3.947721366215371 -4.1581519413373265 -0.000004240185041005643 -0.5873776355710697 -0.0000013840153555860027 -10.160424055928377 -0.6317118618394052 -6.311622806338298 -5.9491490675930185 10.297545525161397 -3.123935843622941 -0.6295774568590206 -5.981516949284303 7.15586793470164 -1.5659431554320628e-8 -1.2888775639028807 -0.0000012801766736550468
